<svg width="22" height="23" viewBox="0 0 22 23" fill="none" xmlns="http://www.w3.org/2000/svg">
<g clip-path="url(#clip0_268_875)">
<path fill-rule="evenodd" clip-rule="evenodd" d="M20.1823 4.4424L19.6414 5.86323C19.4197 6.3724 19.196 6.88077 18.9704 7.38832C18.3489 8.69592 17.4928 10.2246 16.4707 11.2797C15.4935 12.2862 14.0195 13.2145 12.8389 13.8733C12.9946 14.6037 12.9621 15.3607 12.7444 16.0757C12.5268 16.7908 12.1308 17.4413 11.5922 17.9686C9.51137 20.0087 7.1867 20.0087 5.45787 19.5054C4.14703 19.1226 3.06903 18.4288 2.0387 17.575C1.99635 17.5401 1.96274 17.4961 1.94047 17.4465C1.9182 17.3968 1.90786 17.3428 1.91025 17.2886C1.91264 17.2344 1.9277 17.1815 1.95426 17.1339C1.98082 17.0864 2.01818 17.0454 2.06345 17.0142L2.52178 16.6889C3.13778 16.2333 3.73637 15.677 3.88762 14.9319C3.99303 14.1007 4.05262 13.6468 4.0682 13.5722C4.1947 12.953 4.46237 12.2502 5.11137 11.6131C5.64912 11.0852 6.31255 10.6971 7.04172 10.4837C7.77089 10.2703 8.5428 10.2384 9.2877 10.3908C9.95962 9.23423 10.9065 7.78913 11.9332 6.83203C13.0094 5.82908 14.5686 4.98971 15.9024 4.38039L17.4579 3.72165L18.9072 3.19232C19.0848 3.1323 19.2761 3.12242 19.4592 3.1638C19.6423 3.20519 19.8099 3.29617 19.9428 3.42639C20.0757 3.5566 20.1686 3.72081 20.211 3.90028C20.2533 4.07976 20.2434 4.26729 20.1823 4.4415V4.4424ZM10.9817 11.1098C11.4189 11.4111 11.7994 11.7845 12.1064 12.2134C12.4658 12.0094 12.8352 11.7883 13.1973 11.5556L13.1698 11.4953C13.0189 11.1845 12.8142 10.9018 12.5648 10.6596C12.3446 10.4427 12.0921 10.26 11.8159 10.1176L11.6518 10.0404C11.4144 10.3953 11.1889 10.7575 10.9808 11.1098H10.9817ZM17.8035 5.52443C17.4524 5.66732 17.0702 5.82998 16.676 6.00972C15.3854 6.60016 14.0489 7.33979 13.1964 8.13423C13.0461 8.27556 12.9023 8.42339 12.7655 8.57729C13.0974 8.75703 13.4824 9.01765 13.8609 9.38971C14.2404 9.76087 14.5063 10.1383 14.6896 10.4636C14.8528 10.3234 15.0049 10.1824 15.1415 10.0413C15.9519 9.20547 16.7063 7.89518 17.3085 6.62892C17.4919 6.24248 17.6578 5.86863 17.8035 5.52443Z" fill="#252525"/>
</g>
<defs>
<clipPath id="clip0_268_875">
<rect width="22" height="21.5686" fill="white" transform="translate(0 0.960938)"/>
</clipPath>
</defs>
</svg>
