<svg width="21" height="20" viewBox="0 0 21 20" fill="none" xmlns="http://www.w3.org/2000/svg">
<path d="M18.75 0.901855H1.5625C1.1481 0.901855 0.750671 1.06325 0.457646 1.35053C0.16462 1.63781 0 2.02744 0 2.43372V14.6886C0 15.0949 0.16462 15.4845 0.457646 15.7718C0.750671 16.0591 1.1481 16.2205 1.5625 16.2205H7.37305L8.81836 18.5853C8.95553 18.8136 9.1511 19.0029 9.38575 19.1343C9.62039 19.2658 9.88598 19.335 10.1562 19.335C10.4265 19.335 10.6921 19.2658 10.9268 19.1343C11.1614 19.0029 11.357 18.8136 11.4941 18.5853L12.9395 16.2205H18.75C19.1644 16.2205 19.5618 16.0591 19.8549 15.7718C20.1479 15.4845 20.3125 15.0949 20.3125 14.6886V2.43372C20.3125 2.02744 20.1479 1.63781 19.8549 1.35053C19.5618 1.06325 19.1644 0.901855 18.75 0.901855ZM5.46875 9.71007C5.23698 9.71007 5.01041 9.64268 4.81769 9.51644C4.62498 9.3902 4.47477 9.21077 4.38608 9.00083C4.29738 8.7909 4.27418 8.55989 4.31939 8.33703C4.36461 8.11417 4.47622 7.90945 4.64011 7.74878C4.804 7.5881 5.01281 7.47868 5.24013 7.43435C5.46745 7.39002 5.70307 7.41277 5.91721 7.49973C6.13134 7.58668 6.31436 7.73394 6.44313 7.92288C6.5719 8.11181 6.64062 8.33394 6.64062 8.56117C6.64062 8.86588 6.51716 9.1581 6.29739 9.37356C6.07762 9.58902 5.77955 9.71007 5.46875 9.71007ZM10.1562 9.71007C9.92447 9.71007 9.69791 9.64268 9.50519 9.51644C9.31248 9.3902 9.16228 9.21077 9.07358 9.00083C8.98488 8.7909 8.96167 8.55989 9.00689 8.33703C9.05211 8.11417 9.16372 7.90945 9.32761 7.74878C9.4915 7.5881 9.70031 7.47868 9.92763 7.43435C10.155 7.39002 10.3906 7.41277 10.6047 7.49973C10.8188 7.58668 11.0019 7.73394 11.1306 7.92288C11.2594 8.11181 11.3281 8.33394 11.3281 8.56117C11.3281 8.86588 11.2047 9.1581 10.9849 9.37356C10.7651 9.58902 10.4671 9.71007 10.1562 9.71007ZM14.8438 9.71007C14.612 9.71007 14.3854 9.64268 14.1927 9.51644C14 9.3902 13.8498 9.21077 13.7611 9.00083C13.6724 8.7909 13.6492 8.55989 13.6944 8.33703C13.7396 8.11417 13.8512 7.90945 14.0151 7.74878C14.179 7.5881 14.3878 7.47868 14.6151 7.43435C14.8425 7.39002 15.0781 7.41277 15.2922 7.49973C15.5063 7.58668 15.6894 7.73394 15.8181 7.92288C15.9469 8.11181 16.0156 8.33394 16.0156 8.56117C16.0156 8.86588 15.8922 9.1581 15.6724 9.37356C15.4526 9.58902 15.1546 9.71007 14.8438 9.71007Z" fill="#252525"/>
</svg>
