<svg width="35" height="35" viewBox="0 0 35 35" fill="none" xmlns="http://www.w3.org/2000/svg">
<path d="M19.6877 9.47917L25.521 15.3125M23.3335 26.25H29.1668M26.2502 23.3333V29.1667M11.6668 29.1667L26.9793 13.8542C27.3623 13.4711 27.6662 13.0164 27.8735 12.516C28.0808 12.0156 28.1874 11.4792 28.1874 10.9375C28.1874 10.3958 28.0808 9.85946 27.8735 9.35902C27.6662 8.85857 27.3623 8.40386 26.9793 8.02084C26.5963 7.63781 26.1416 7.33399 25.6411 7.1267C25.1407 6.9194 24.6043 6.81271 24.0627 6.81271C23.521 6.81271 22.9846 6.9194 22.4842 7.1267C21.9837 7.33399 21.529 7.63781 21.146 8.02084L5.8335 23.3333V29.1667H11.6668Z" stroke="#FF8A00" stroke-width="2" stroke-linecap="round" stroke-linejoin="round"/>
</svg>
