<svg width="11" height="8" viewBox="0 0 11 8" fill="none" xmlns="http://www.w3.org/2000/svg">
<path d="M4.89346 7.7696C4.94238 7.84066 5.00784 7.89875 5.08421 7.93889C5.16058 7.97903 5.24555 8 5.33183 8C5.4181 8 5.50307 7.97903 5.57944 7.93889C5.65581 7.89875 5.72127 7.84066 5.7702 7.7696L10.5699 0.836743C10.6254 0.756778 10.658 0.663118 10.6641 0.565938C10.6701 0.468757 10.6494 0.371773 10.6043 0.285524C10.5591 0.199274 10.4911 0.127057 10.4078 0.0767191C10.3244 0.0263811 10.2289 -0.000152706 10.1315 6.61103e-07H0.532156C0.435013 0.000401918 0.339816 0.027277 0.256805 0.0777355C0.173793 0.128194 0.106107 0.200327 0.0610253 0.286377C0.0159435 0.372427 -0.00482802 0.469139 0.00094436 0.566112C0.00671674 0.663084 0.0388147 0.756648 0.0937863 0.836743L4.89346 7.7696Z" fill="#FF8A00"/>
</svg>
