<svg width="17" height="13" viewBox="0 0 17 13" fill="none" xmlns="http://www.w3.org/2000/svg">
<g clip-path="url(#clip0_233_562)">
<path d="M13.4062 11.375H2.84375C2.62031 11.375 2.4375 11.5578 2.4375 11.7812V12.5938C2.4375 12.8172 2.62031 13 2.84375 13H13.4062C13.6297 13 13.8125 12.8172 13.8125 12.5938V11.7812C13.8125 11.5578 13.6297 11.375 13.4062 11.375ZM15.0312 3.25C14.3584 3.25 13.8125 3.7959 13.8125 4.46875C13.8125 4.64902 13.8531 4.8166 13.9242 4.97148L12.0859 6.07344C11.6949 6.30703 11.1896 6.175 10.9637 5.77891L8.89434 2.1582C9.16602 1.93477 9.34375 1.59961 9.34375 1.21875C9.34375 0.545898 8.79785 0 8.125 0C7.45215 0 6.90625 0.545898 6.90625 1.21875C6.90625 1.59961 7.08398 1.93477 7.35566 2.1582L5.28633 5.77891C5.06035 6.175 4.55254 6.30703 4.16406 6.07344L2.32832 4.97148C2.39687 4.81914 2.44004 4.64902 2.44004 4.46875C2.44004 3.7959 1.89414 3.25 1.22129 3.25C0.548437 3.25 0 3.7959 0 4.46875C0 5.1416 0.545898 5.6875 1.21875 5.6875C1.28477 5.6875 1.35078 5.67734 1.41426 5.66719L3.25 10.5625H13L14.8357 5.66719C14.8992 5.67734 14.9652 5.6875 15.0312 5.6875C15.7041 5.6875 16.25 5.1416 16.25 4.46875C16.25 3.7959 15.7041 3.25 15.0312 3.25Z" fill="#252525"/>
</g>
<defs>
<clipPath id="clip0_233_562">
<rect width="16.25" height="13" fill="white"/>
</clipPath>
</defs>
</svg>
