<svg width="20" height="20" viewBox="0 0 20 20" fill="none" xmlns="http://www.w3.org/2000/svg">
<path d="M11.525 15.8334C11.4005 15.8338 11.2775 15.8063 11.165 15.7529C11.0525 15.6996 10.9534 15.6217 10.875 15.525L6.84997 10.525C6.72741 10.3759 6.6604 10.1889 6.6604 9.99586C6.6604 9.80284 6.72741 9.6158 6.84997 9.46669L11.0166 4.46669C11.1581 4.29651 11.3613 4.18949 11.5817 4.16918C11.8021 4.14886 12.0215 4.21691 12.1916 4.35836C12.3618 4.49981 12.4688 4.70307 12.4892 4.92342C12.5095 5.14378 12.4414 5.36318 12.3 5.53336L8.57497 10L12.175 14.4667C12.2769 14.589 12.3416 14.738 12.3615 14.8959C12.3814 15.0539 12.3556 15.2142 12.2873 15.358C12.2189 15.5018 12.1107 15.623 11.9757 15.7072C11.8406 15.7914 11.6842 15.8352 11.525 15.8334Z" fill="#545454"/>
</svg>
