<svg width="28" height="28" viewBox="0 0 28 28" fill="none" xmlns="http://www.w3.org/2000/svg">
<path d="M20.7083 17.0997L19.0166 15.4412C19.2889 15.0027 19.493 14.5452 19.6291 14.0686C19.7652 13.5921 19.8333 13.0964 19.8333 12.5817H22.1666C22.1666 13.4205 22.0402 14.2162 21.7875 14.9688C21.5347 15.7222 21.175 16.4325 20.7083 17.0997ZM17.2666 13.6683L10.5 7.03433V5.71897C10.5 4.76581 10.8402 3.95563 11.5208 3.28841C12.2014 2.6212 13.0277 2.2876 14 2.2876C14.9722 2.2876 15.7986 2.6212 16.4791 3.28841C17.1597 3.95563 17.5 4.76581 17.5 5.71897V12.5817C17.5 12.7914 17.4759 12.982 17.4276 13.1536C17.3786 13.3252 17.325 13.4967 17.2666 13.6683ZM12.8333 24.0196V20.4739C10.8111 20.207 9.13885 19.3255 7.81663 17.8294C6.49441 16.3326 5.8333 14.5833 5.8333 12.5817H8.16663C8.16663 14.164 8.73558 15.5125 9.87347 16.6273C11.0106 17.7429 12.3861 18.3007 14 18.3007C14.6611 18.3007 15.2884 18.2008 15.8818 18.001C16.4745 17.8005 17.0139 17.5191 17.5 17.1569L19.1625 18.7868C18.5986 19.2252 17.9814 19.592 17.311 19.8871C16.6397 20.183 15.925 20.3786 15.1666 20.4739V24.0196H12.8333ZM23.1 25.8497L1.6333 4.80394L3.26663 3.20263L24.7333 24.2484L23.1 25.8497Z" fill="#FF4545"/>
</svg>
