<svg width="28" height="28" viewBox="0 0 28 28" fill="none" xmlns="http://www.w3.org/2000/svg">
<path d="M13.9999 16.0131C13.0277 16.0131 12.2013 15.6795 11.5208 15.0123C10.8402 14.3451 10.4999 13.5349 10.4999 12.5817V5.71897C10.4999 4.76581 10.8402 3.95563 11.5208 3.28841C12.2013 2.6212 13.0277 2.2876 13.9999 2.2876C14.9721 2.2876 15.7985 2.6212 16.4791 3.28841C17.1596 3.95563 17.4999 4.76581 17.4999 5.71897V12.5817C17.4999 13.5349 17.1596 14.3451 16.4791 15.0123C15.7985 15.6795 14.9721 16.0131 13.9999 16.0131ZM12.8333 24.0196V20.5025C10.811 20.2356 9.13881 19.3491 7.81658 17.8432C6.49436 16.3372 5.83325 14.5833 5.83325 12.5817H8.16658C8.16658 14.164 8.73553 15.5125 9.87342 16.6273C11.0105 17.7429 12.386 18.3007 13.9999 18.3007C15.6138 18.3007 16.9897 17.7429 18.1276 16.6273C19.2647 15.5125 19.8332 14.164 19.8332 12.5817H22.1666C22.1666 14.5833 21.5055 16.3372 20.1832 17.8432C18.861 19.3491 17.1888 20.2356 15.1666 20.5025V24.0196H12.8333Z" fill="#252525"/>
</svg>
