<svg width="25" height="25" viewBox="0 0 25 25" fill="none" xmlns="http://www.w3.org/2000/svg">
<path d="M6.25003 13.6719C6.25134 13.7748 6.23203 13.877 6.19323 13.9724C6.15444 14.0678 6.09694 14.1544 6.02413 14.2272C5.95132 14.3 5.86468 14.3575 5.7693 14.3963C5.67392 14.4351 5.57174 14.4544 5.46878 14.4531H1.17191C1.02677 14.4519 0.88468 14.4113 0.760833 14.3357C0.636986 14.26 0.536037 14.1521 0.468781 14.0234C0.40624 13.8925 0.380472 13.7469 0.394232 13.6025C0.407993 13.458 0.460765 13.3199 0.546906 13.2031C1.2383 12.275 2.16088 11.5444 3.22269 11.084C2.76643 10.6663 2.41588 10.1463 2.19988 9.56669C1.98389 8.98708 1.90863 8.36446 1.98029 7.75007C2.05195 7.13569 2.26849 6.54711 2.61209 6.03277C2.95568 5.51843 3.41651 5.09304 3.95664 4.79161C4.49677 4.49018 5.10077 4.32132 5.71891 4.29894C6.33706 4.27657 6.95168 4.4013 7.51219 4.66289C8.07271 4.92447 8.56309 5.31543 8.94298 5.80357C9.32286 6.29172 9.5814 6.86311 9.6973 7.4707C9.72619 7.62895 9.70615 7.79224 9.63985 7.9388C9.57354 8.08537 9.46413 8.20823 9.3262 8.29101C8.06315 9.03999 7.10252 10.2079 6.61136 11.5918C6.36924 12.2584 6.24691 12.9626 6.25003 13.6719ZM24.4532 13.2031C23.7618 12.275 22.8392 11.5444 21.7774 11.084C22.2336 10.6663 22.5842 10.1463 22.8002 9.56669C23.0162 8.98708 23.0914 8.36446 23.0198 7.75007C22.9481 7.13569 22.7316 6.54711 22.388 6.03277C22.0444 5.51843 21.5836 5.09304 21.0434 4.79161C20.5033 4.49018 19.8993 4.32132 19.2812 4.29894C18.663 4.27657 18.0484 4.4013 17.4879 4.66289C16.9274 4.92447 16.437 5.31543 16.0571 5.80357C15.6772 6.29172 15.4187 6.86311 15.3028 7.4707C15.2739 7.62895 15.2939 7.79224 15.3602 7.9388C15.4265 8.08537 15.5359 8.20823 15.6739 8.29101C16.9386 9.03807 17.8997 10.2067 18.3887 11.5918C18.6308 12.2584 18.7532 12.9626 18.75 13.6719C18.7487 13.7748 18.768 13.877 18.8068 13.9724C18.8456 14.0678 18.9031 14.1544 18.9759 14.2272C19.0487 14.3 19.1354 14.3575 19.2308 14.3963C19.3261 14.4351 19.4283 14.4544 19.5313 14.4531H23.8282C23.9732 14.4531 24.1155 14.4127 24.2389 14.3364C24.3623 14.2602 24.462 14.151 24.5269 14.0213C24.5918 13.8915 24.6193 13.7462 24.6063 13.6017C24.5932 13.4572 24.5402 13.3192 24.4532 13.2031ZM15.3516 17.3926C16.1291 16.7966 16.7004 15.9721 16.9851 15.0347C17.2699 14.0974 17.2538 13.0944 16.9392 12.1666C16.6245 11.2389 16.0271 10.4331 15.2309 9.86234C14.4347 9.29162 13.4797 8.98469 12.5 8.98469C11.5204 8.98469 10.5654 9.29162 9.76915 9.86234C8.97294 10.4331 8.37554 11.2389 8.06089 12.1666C7.74625 13.0944 7.73017 14.0974 8.01493 15.0347C8.29968 15.9721 8.87095 16.7966 9.64847 17.3926C8.12946 18.067 6.89796 19.2569 6.17191 20.7519C6.11414 20.8708 6.08826 21.0026 6.09682 21.1344C6.10538 21.2662 6.14809 21.3936 6.22074 21.5039C6.28835 21.6171 6.38419 21.7108 6.49888 21.7758C6.61357 21.8409 6.74318 21.8751 6.87503 21.875H18.125C18.2569 21.8751 18.3865 21.8409 18.5012 21.7758C18.6159 21.7108 18.7117 21.6171 18.7793 21.5039C18.852 21.3936 18.8947 21.2662 18.9032 21.1344C18.9118 21.0026 18.8859 20.8708 18.8282 20.7519C18.1021 19.2569 16.8706 18.067 15.3516 17.3926Z" fill="#252525"/>
</svg>
