<svg width="60" height="60" viewBox="0 0 60 60" fill="none" xmlns="http://www.w3.org/2000/svg">
<path d="M30 7.5C17.5934 7.5 7.5 17.5934 7.5 30C7.5 42.4066 17.5934 52.5 30 52.5C42.4066 52.5 52.5 42.4066 52.5 30C52.5 17.5934 42.4066 7.5 30 7.5ZM40.7004 40.7004C40.3488 41.0518 39.8721 41.2491 39.375 41.2491C38.8779 41.2491 38.4012 41.0518 38.0496 40.7004L33.0293 35.6813C30.9084 37.1407 28.3186 37.7549 25.7682 37.4032C23.2178 37.0515 20.8909 35.7595 19.2441 33.7805C17.5972 31.8016 16.7494 29.2787 16.867 26.7068C16.9845 24.135 18.0589 21.6999 19.8794 19.8794C21.6999 18.0589 24.135 16.9845 26.7068 16.867C29.2787 16.7494 31.8016 17.5972 33.7805 19.2441C35.7595 20.8909 37.0515 23.2178 37.4032 25.7682C37.7549 28.3186 37.1407 30.9084 35.6813 33.0293L40.7004 38.0496C41.0518 38.4012 41.2491 38.8779 41.2491 39.375C41.2491 39.8721 41.0518 40.3488 40.7004 40.7004Z" fill="#FF8A00"/>
<path d="M27.1875 33.75C30.8119 33.75 33.75 30.8119 33.75 27.1875C33.75 23.5631 30.8119 20.625 27.1875 20.625C23.5631 20.625 20.625 23.5631 20.625 27.1875C20.625 30.8119 23.5631 33.75 27.1875 33.75Z" fill="#FF8A00"/>
</svg>
