<svg width="20" height="20" viewBox="0 0 20 20" fill="none" xmlns="http://www.w3.org/2000/svg">
<path d="M18.3907 16.4062C17.2949 14.5169 15.5938 13.0526 13.5625 12.25C14.5595 11.5023 15.2959 10.4599 15.6675 9.27037C16.039 8.08088 16.0269 6.80463 15.6328 5.6224C15.2388 4.44017 14.4827 3.4119 13.4718 2.68325C12.4608 1.9546 11.2462 1.5625 10 1.5625C8.75386 1.5625 7.53927 1.9546 6.52832 2.68325C5.51737 3.4119 4.7613 4.44017 4.36723 5.6224C3.97315 6.80463 3.96104 8.08088 4.33261 9.27037C4.70418 10.4599 5.44059 11.5023 6.43753 12.25C4.40626 13.0526 2.70516 14.5169 1.60941 16.4062C1.48509 16.6217 1.45146 16.8778 1.51593 17.1181C1.58039 17.3583 1.73767 17.5632 1.95316 17.6875C2.16865 17.8118 2.4247 17.8454 2.66498 17.781C2.90526 17.7165 3.11009 17.5592 3.23441 17.3438C3.92013 16.1562 4.90635 15.17 6.09396 14.4844C7.28157 13.7988 8.62872 13.4378 10 13.4378C11.3713 13.4378 12.7185 13.7988 13.9061 14.4844C15.0937 15.17 16.0799 16.1562 16.7657 17.3438C16.8486 17.4858 16.9672 17.6038 17.1097 17.686C17.2522 17.7682 17.4137 17.8118 17.5782 17.8125C17.7428 17.8138 17.9048 17.7706 18.0469 17.6875C18.1537 17.626 18.2472 17.544 18.3223 17.4464C18.3974 17.3487 18.4524 17.2371 18.4843 17.1181C18.5163 16.9991 18.5244 16.875 18.5084 16.7529C18.4923 16.6307 18.4523 16.5129 18.3907 16.4062ZM5.93753 7.5C5.93753 6.69651 6.1758 5.91107 6.62219 5.243C7.06858 4.57492 7.70306 4.05422 8.44538 3.74674C9.18771 3.43926 10.0045 3.35881 10.7926 3.51556C11.5806 3.67231 12.3045 4.05923 12.8727 4.62738C13.4408 5.19553 13.8277 5.9194 13.9845 6.70745C14.1412 7.49549 14.0608 8.31233 13.7533 9.05465C13.4458 9.79698 12.9251 10.4315 12.257 10.8778C11.589 11.3242 10.8035 11.5625 10 11.5625C8.92259 11.5625 7.88928 11.1345 7.12741 10.3726C6.36555 9.61075 5.93753 8.57744 5.93753 7.5Z" fill="#252525"/>
</svg>
