<svg width="23" height="21" viewBox="0 0 23 21" fill="none" xmlns="http://www.w3.org/2000/svg">
<g clip-path="url(#clip0_251_812)">
<path d="M0 5.86285C0 4.51098 1.12109 3.41187 2.5 3.41187H12.5C13.8789 3.41187 15 4.51098 15 5.86285V15.6668C15 17.0186 13.8789 18.1177 12.5 18.1177H2.5C1.12109 18.1177 0 17.0186 0 15.6668V5.86285ZM21.8398 4.78288C22.2461 4.99734 22.5 5.41095 22.5 5.86285V15.6668C22.5 16.1187 22.2461 16.5323 21.8398 16.7467C21.4336 16.9612 20.9414 16.9382 20.5547 16.6855L16.8047 14.2345L16.25 13.8707V7.65895L16.8047 7.29514L20.5547 4.84416C20.9375 4.59523 21.4297 4.56842 21.8398 4.78288Z" fill="#252525"/>
</g>
<defs>
<clipPath id="clip0_251_812">
<rect width="22.5" height="19.6078" fill="white" transform="translate(0 0.960938)"/>
</clipPath>
</defs>
</svg>
