<svg width="25" height="21" viewBox="0 0 25 21" fill="none" xmlns="http://www.w3.org/2000/svg">
<g clip-path="url(#clip0_251_814)">
<path d="M1.5156 1.15622C1.10935 0.842189 0.519507 0.914953 0.199194 1.31324C-0.121118 1.71152 -0.0468996 2.2898 0.35935 2.60383L23.4844 20.3734C23.8906 20.6875 24.4804 20.6147 24.8008 20.2164C25.1211 19.8181 25.0469 19.2399 24.6406 18.9258L21.2656 16.3332L21.8047 16.6855C22.1875 16.9344 22.6797 16.9612 23.0898 16.7468C23.5 16.5323 23.75 16.1187 23.75 15.6668V5.86287C23.75 5.41097 23.4961 4.99737 23.0898 4.78291C22.6836 4.56845 22.1914 4.59142 21.8047 4.84418L18.0547 7.29516L17.5 7.65898V13.4379L16.25 12.4767V5.86287C16.25 4.511 15.1289 3.41189 13.75 3.41189H4.44919L1.5156 1.15622ZM1.24998 5.86287V15.6668C1.24998 17.0187 2.37107 18.1178 3.74998 18.1178H13.75C14.664 18.1178 15.4648 17.6352 15.8984 16.9191L1.26169 5.61394C1.25388 5.69436 1.24998 5.77862 1.24998 5.86287Z" fill="#FF4545"/>
</g>
<defs>
<clipPath id="clip0_251_814">
<rect width="25" height="19.6078" fill="white" transform="translate(0 0.960938)"/>
</clipPath>
</defs>
</svg>
